<?xml version="1.0" standalone="no"?>
<!DOCTYPE svg PUBLIC "-//W3C//DTD SVG 20010904//EN"
 "http://www.w3.org/TR/2001/REC-SVG-20010904/DTD/svg10.dtd">
<svg version="1.0" xmlns="http://www.w3.org/2000/svg"
 width="512.000000pt" height="512.000000pt" viewBox="0 0 512.000000 512.000000"
 preserveAspectRatio="xMidYMid meet">

<g transform="translate(0.000000,512.000000) scale(0.100000,-0.100000)"
fill="#000000" stroke="none">
<path d="M3287 4540 c-585 -107 -1028 -534 -1128 -1087 -28 -157 -23 -371 12
-505 l10 -38 291 -2 292 -3 39 -50 c59 -77 141 -204 172 -265 15 -30 28 -56
29 -57 0 -1 43 7 93 17 51 11 121 22 155 25 35 3 90 7 123 10 135 12 376 -23
560 -81 116 -36 326 -144 428 -220 l89 -65 36 33 c70 63 184 193 233 268 337
506 278 1155 -145 1598 -199 208 -433 340 -726 408 -151 36 -409 42 -563 14z"/>
<path d="M447 2698 c-118 -160 -207 -372 -243 -573 -24 -133 -24 -357 -1 -485
22 -116 73 -274 122 -370 74 -146 229 -354 280 -373 9 -4 -8 20 -38 54 -31 33
-67 77 -81 98 l-26 37 625 624 c344 344 625 630 625 635 0 6 42 17 93 24 50 7
124 22 162 32 39 11 81 22 94 25 13 3 44 14 67 24 24 11 46 20 49 20 13 0 94
40 100 50 3 5 -18 -1 -47 -14 -409 -180 -896 -174 -1306 15 -130 60 -198 104
-387 251 -21 17 -22 16 -88 -74z"/>
<path d="M2579 2713 l-24 -28 28 24 c25 23 32 31 24 31 -2 0 -14 -12 -28 -27z"/>
<path d="M2488 2652 c-42 -33 -108 -73 -175 -106 -13 -6 -23 -15 -23 -19 0 -5
15 0 33 11 17 11 55 32 82 46 28 14 70 43 95 65 56 50 50 51 -12 3z"/>
</g>
</svg>
